<svg width="180" height="112" fill="none" xmlns="http://www.w3.org/2000/svg"><path d="M62.729 110c30.226 0 54.729-24.503 54.729-54.729S92.955.542 62.729.542 8 25.045 8 55.271 32.503 110 62.729 110Z" fill="#F2EFE9"/><path d="M110.28 28.025A54.62 54.62 0 0 0 90.385 7.72L62.43 54.972l47.85-26.947Z" fill="#0AF"/><path d="M62.975 52.69c1.208-.755 28.971-15.53 28.971-15.53.505-.288 1.164-.088 1.45.423.285.51.11 1.155-.396 1.444L65.26 55.689c-.989.711-2.702.667-3.229-.377-.351-.645-.351-1.8.944-2.622Z" fill="#fff"/><path d="m83.978 19.233 4.862-8.26M36.62 99.295l4.862-8.26M63.218 9.687l.066-5.84M62.174 106.423l.066-5.773M42.26 18.79l-4.708-8.349M87.908 99.828l-4.707-8.348M26.828 33.887l-8.26-4.862M106.89 81.246l-8.259-4.863M21.011 54.691l-9.57-.111M114.017 55.69l-6.728-.089M26.384 75.606l-8.348 4.706M107.423 29.957l-5.706 3.22" stroke="#212721" stroke-width="2" stroke-miterlimit="10" stroke-linecap="round" stroke-linejoin="round"/><path d="M113.271 33.44a52.88 52.88 0 0 0-9.57-14.356" stroke="#00B7FA" stroke-width="4" stroke-miterlimit="10" stroke-linecap="round" stroke-linejoin="round" style="mix-blend-mode:multiply"/><path d="M63.626 58.56a4.187 4.187 0 1 0 0-8.373 4.187 4.187 0 0 0 0 8.374Z" fill="#fff"/><path d="M153.95 83.524c-1.361 0-5.218 1.63-6.437 2.062a11.593 11.593 0 0 0-3.883-.678c-6.675 0-12.086 5.646-12.086 12.611 0 .218.021.43.031.645-2.83-1.167-5.691-2.929-8.565-4.901-1.502-5.18-6.111-8.952-11.567-8.952-.47 0-.933.035-1.389.09-3.585-2.088-7.161-3.572-10.7-3.671-18.008-.51-35.874 6.099-53.766 11.172-1.862-4.464-6.123-7.589-11.085-7.589-1.28 0-2.514.21-3.67.595a11.605 11.605 0 0 0-3.671-.595c-6.675 0-12.087 5.645-12.087 12.611 0 .227.021.446.033.67-2.827.284-5.645.679-8.4 1.383-1.213.309-3.663.609-4.02 2.099-.316 1.318 1.217 2.856 2.268 3.347 1.347.629 2.891.619 4.375.603 2.83-.033 5.668-.055 8.505-.078 2.218 2.801 5.572 4.587 9.326 4.587h7.34c3.804 0 7.193-1.836 9.409-4.701 4.889-.007 9.776-.009 14.646-.009 1.212 0 2.783.118 3.808-.281 2.027 4.001 6.05 6.734 10.69 6.734h9.078c4.811 0 8.954-2.941 10.9-7.188h.1c1.604 0 3.19-.002 4.771-.007 2.18 3.293 5.82 5.454 9.946 5.454h.012l3.248-.012c.111.003.222.012.335.012.137 0 .274-.009.409-.014h.151v-.005c3.945-.189 7.398-2.345 9.47-5.555 3.03-.014 6.11-.021 9.287-.021.477 0 1.36-.086 2.343-.227 2.074 3.831 6.007 6.422 10.525 6.422h7.767c6.675 0 12.086-5.645 12.086-12.61 0-6.966-2.858-14.003-9.533-14.003Z" fill="#000"/><path d="M.325 99.87c.113-1.89.16-3.08.149-3.881a1.059 1.059 0 0 0-.104-.418c-.312-.558-.458-1.344-.314-1.871.907-2.317 2.314-3.907 3.918-5.192 0 0 2.674-3.633 3.966-5.213 2.22-2.716 6.9-4.081 9.545-5.052 8.014-2.934 18.147-5.466 18.147-5.466C45.973 67.602 57.392 61.872 66.2 58.28c5.591-2.28 11.874-1.857 19.414-2.024 7.258-.163 19.274-.085 26.752-.213 9.398-.16 20.965.05 24.447 2.197 7.716 4.76 17.894 12.497 23.476 14.033 2.931.807 7.735 1.804 11.236 2.539 3.947.826 4.2 6.195 5.758 9.913 0 0 1.982 2.442 2.429 3.57.755 1.91-.121 4.889-.898 6.466-.997 2.027-3.281 3.472-5.284 4.514-3.526 1.831-7.088 2.433-11.002 3.125.761-3.437.699-6.876-.331-10.055-1.674-5.175-7.256-8.29-12.4-6.521-5.497 1.89-7.644 8.149-8.123 14.134a2.003 2.003 0 0 1-1.93 1.854c-15.176.477-30.805.423-45.95.13.838-7.445-1.645-14.567-8.14-16.515-6.498-1.949-12.611 2.95-14.116 9.703-.56 2.515-.637 6.002-2.985 7.067-.744.338-1.59.343-2.407.34l-55.902-.113c-2.704-.005-6.233-.04-8.468-.416-.756-.123-1.507-1.212-1.45-2.138Z" fill="#0AF"/><path d="M106.086 58.398c2.608-1.571 6.867-1.567 8.948-1.567 9.575 0 19.189-.181 22.67 1.966 7.717 4.76 16.997 11.937 22.581 13.475 2.932.808 7.736 1.804 11.236 2.54 3.947.826 4.2 6.195 5.759 9.913 0 0 1.982 2.442 2.428 3.569.756 1.91-.12 4.889-.897 6.467-.997 2.026-3.281 3.472-5.284 4.514-3.527 1.83-7.089 2.432-11.003 3.124.761-3.436.7-6.875-.33-10.055-1.675-5.175-7.256-8.29-12.401-6.521-5.496 1.89-7.643 8.149-8.123 14.134a2.002 2.002 0 0 1-1.93 1.854c-15.176.477-30.805.423-45.95.13.838-7.445-1.644-14.566-8.14-16.515-6.498-1.949-12.61 2.95-14.115 9.703-.56 2.516-.638 6.002-2.986 7.067-.744.338-1.59.343-2.407.34-3.835-.007-10.638-.023-14.474-.023-3.744 0 4.19-7.275 3.623-14.829-.146-1.953 2.124-3.24 9.307-6.29 6.934-2.943 22.696-7.093 24.088-8.31 11.706-10.241 15.787-13.716 17.4-14.687Z" fill="#0085FF"/><path d="M86.281 72.423c-.42.354-.94.558-1.488.584-5.494.255-35.943 1.509-47.807.264-.277-.028-.277-.319-.031-.451 3.087-1.67 20.108-10.52 28.323-13.645a1.36 1.36 0 0 1 .484-.097s8.758-1.03 35.402-.114c.234.007.345.296.168.447-1.972 1.712-9.628 8.437-15.051 13.012ZM145.866 73.087H93.129c-.669 0-.985-.827-.487-1.27l9.798-9.01c2.638-2.36 5.069-3.337 8.61-3.269l18.086.05c1.719.069 4.381 1.179 5.642 2.35l11.451 10.2c.374.328.137.949-.363.949ZM40.595 101.719H12.081a1.407 1.407 0 0 1-1.365-1.746l.319-2.652a3.218 3.218 0 0 1 3.12-2.443h19.978c1.712 0 3.377.567 4.73 1.616l2.413 3.229c.843.649.382 1.996-.68 1.996ZM63.769 99.723h-6.276c-.47 0-.926-.165-1.288-.468l-4.877-4.081a.501.501 0 0 1 .321-.886h5.074a4.38 4.38 0 0 1 2.761.978l4.556 3.692a.431.431 0 0 1-.271.765ZM3.597 99.723h-1.68a.762.762 0 0 1-.741-.94l.69-2.894a2.086 2.086 0 0 1 2.026-1.6h2.26c.379 0 .653.356.556.72l-1.606 3.656a1.603 1.603 0 0 1-1.505 1.058ZM38.205 91.604s-6.05.336-13.99.336c-8.16 0-11.393-.336-11.393-.336l.603-5.106s6.008 1.875 11.153 1.825c6.082-.059 16.064-1.724 16.064-1.724l-2.438 5.005Z" fill="#000"/><path d="m49.131 91.347-11.897.666a.446.446 0 0 1-.433-.626l1.758-3.952c.146-.35.446-.61.812-.708l22.89-4.925c1.456-.352 2.204.106 1.2 1.214l-.562.692c-3.39 4.096-8.46 7.341-13.768 7.639ZM13.347 91.942l-4.06-.756A10.104 10.104 0 0 1 5.02 89.3l-1.048-.794s1.44-2.46 3.966-5.212c0 0 3.063 1.766 6.332 3.33a.383.383 0 0 1 .206.366l-.518 4.469a.517.517 0 0 1-.611.484ZM26.5 89.663a1.698 1.698 0 0 1-1.575 1.063H21.51a1.697 1.697 0 0 1 1.575-1.063h3.416ZM83.064 106.472c4.177 0 7.563-3.897 7.563-8.704 0-4.808-3.386-8.704-7.563-8.704s-7.563 3.896-7.563 8.704c0 4.807 3.386 8.704 7.563 8.704ZM152.826 106.103c4.033 0 7.303-3.763 7.303-8.404s-3.27-8.404-7.303-8.404c-4.034 0-7.304 3.763-7.304 8.404s3.27 8.404 7.304 8.404ZM57.415 95.987h-9.202a.46.46 0 0 1-.34-.154l-.702-.791a.454.454 0 0 1 .34-.756h9.203c.13 0 .252.057.34.154l.701.79a.454.454 0 0 1-.34.757ZM3.56 95.986h4.183c.21 0 .404-.118.501-.307l.293-.576a.56.56 0 0 0-.5-.815H3.852a.563.563 0 0 0-.5.307l-.294.576a.56.56 0 0 0 .501.815Z" fill="#fff"/><path d="M100.092 99.003c-.364 0-.829-.038-1.186-.336-.552-.458-.538-1.25-.529-1.677.02-.951.043-1.913.066-2.876.17-6.952.348-14.137-1.162-19.827a.354.354 0 0 1 .685-.18c1.536 5.787 1.358 13.027 1.186 20.028-.024.963-.047 1.922-.066 2.874-.01.454.017.905.272 1.117.205.17.55.178.916.17l36.425-.76c1.301-6.467 5.354-12.424 10.896-16.007.663-2.778.37-5.726-.832-8.32a.354.354 0 0 1 .643-.297 13.484 13.484 0 0 1 .843 8.924.357.357 0 0 1-.154.212c-5.522 3.522-9.542 9.465-10.754 15.899a.35.35 0 0 1-.34.288l-36.71.766c-.064.002-.128.002-.199.002Z" fill="#006999"/><path d="M122.411 98.54c-.014 0-.026 0-.04-.003a.355.355 0 0 1-.314-.392c.817-7.374.713-16.756-.265-23.899a.354.354 0 0 1 .702-.097c.985 7.195 1.089 16.643.267 24.072a.354.354 0 0 1-.35.319ZM118.773 77.577h-5.31a.354.354 0 1 1 0-.709h5.31a.354.354 0 1 1 0 .709ZM145.524 77.577h-4.758a.354.354 0 1 1 0-.709h4.758a.354.354 0 1 1 0 .709Z" fill="#006999"/><path d="M46.472 81.826a.355.355 0 0 1-.128-.685c8.388-3.222 20.193-5.73 28.172-6.786a.351.351 0 0 1 .397.304.352.352 0 0 1-.305.397C66.67 76.107 54.93 78.6 46.597 81.802a.382.382 0 0 1-.125.024ZM21.402 82.436a.351.351 0 0 1-.267-.123.357.357 0 0 1 .035-.5 46.903 46.903 0 0 1 11.718-7.434.355.355 0 0 1 .288.647 46.135 46.135 0 0 0-11.54 7.32.347.347 0 0 1-.234.09Z" fill="#0085FF"/><path d="M82.937 99.239c.706 0 1.278-.659 1.278-1.472 0-.812-.572-1.471-1.278-1.471-.706 0-1.278.659-1.278 1.471 0 .813.572 1.472 1.278 1.472ZM152.827 99.17c.705 0 1.278-.658 1.278-1.47 0-.814-.573-1.472-1.278-1.472-.706 0-1.278.658-1.278 1.471 0 .813.572 1.472 1.278 1.472ZM79.589 94.593c1.281 0 2.32-1.154 2.32-2.577s-1.039-2.577-2.32-2.577-2.32 1.154-2.32 2.577 1.039 2.577 2.32 2.577ZM89.57 93.491c.337-1.383-.4-2.75-1.645-3.051-1.245-.302-2.527.574-2.862 1.957-.336 1.383.401 2.75 1.646 3.051 1.245.302 2.526-.574 2.862-1.957ZM89.955 102.358c1.096-.664 1.386-2.189.648-3.406-.737-1.217-2.223-1.665-3.319-1.002-1.095.664-1.385 2.189-.648 3.406.738 1.217 2.224 1.666 3.32 1.002ZM83.325 106.781c1.238-.329 1.946-1.711 1.58-3.086-.365-1.376-1.664-2.224-2.903-1.896-1.238.329-1.945 1.711-1.58 3.086.365 1.376 1.665 2.224 2.903 1.896ZM79.406 100.925c.57-1.304.078-2.778-1.098-3.29-1.175-.513-2.59.129-3.158 1.433-.57 1.305-.078 2.778 1.097 3.291 1.176.512 2.59-.129 3.16-1.434ZM149.888 94.593c1.281 0 2.319-1.154 2.319-2.577s-1.038-2.577-2.319-2.577-2.32 1.154-2.32 2.577 1.039 2.577 2.32 2.577ZM159.867 93.49c.335-1.383-.402-2.749-1.647-3.05-1.245-.303-2.526.573-2.861 1.957-.336 1.383.401 2.749 1.646 3.05 1.245.303 2.526-.573 2.862-1.957ZM160.251 102.36c1.096-.663 1.386-2.188.648-3.405-.737-1.218-2.223-1.666-3.319-1.002-1.095.664-1.385 2.188-.648 3.406.738 1.217 2.224 1.665 3.319 1.001ZM153.621 106.78c1.238-.329 1.946-1.71 1.58-3.086-.365-1.375-1.664-2.224-2.903-1.895-1.238.329-1.945 1.71-1.58 3.086.365 1.375 1.665 2.224 2.903 1.895ZM149.706 100.923c.569-1.304.078-2.778-1.098-3.29-1.175-.513-2.589.129-3.159 1.433-.569 1.305-.077 2.778 1.098 3.291 1.176.513 2.59-.129 3.159-1.434Z" fill="#000"/><path d="m122.556 59.567-16.617 13.52h14.858l12.769-12.03c-1.356-.796-3.149-1.422-4.424-1.471l-6.586-.02ZM128.137 72.057a.458.458 0 0 1-.213-.052.395.395 0 0 1-.196-.425.416.416 0 0 1 .35-.34.302.302 0 0 1 .092 0l6.311-5.939a.355.355 0 0 1 .487.515l-6.453 6.075a.547.547 0 0 1-.378.166ZM70.11 73.537l28.243-14.665a566.925 566.925 0 0 0-15.783-.286c-1.486-.005-38.794 15.098-38.794 15.098 7.698.253 17.916.087 26.334-.147ZM81.06 70.326a.355.355 0 0 1-.143-.678 136.673 136.673 0 0 0 10.378-5.187.354.354 0 1 1 .343.621c-3.39 1.878-6.9 3.633-10.433 5.215a.392.392 0 0 1-.144.029Z" fill="#006999"/><path d="m123.811 73.059-4.051.028-1.264-13.52h2.657l2.658 13.492Z" fill="#000"/></svg>