<svg width="165" height="131" fill="none" xmlns="http://www.w3.org/2000/svg"><path d="m28.338 89.313 1.578 16.438c.087.961.07 1.939-.07 2.9l-.404 2.711c-.35 2.42-.596 4.805-.368 7.31l.333 4.444c.035.549.105 1.013-.175 1.613l-.316.652c.263.137.21.532-.087.601l-6.311 1.269c-.386.103-.736-.223-.631-.6l.386-1.356-.228-8.922a15.275 15.275 0 0 1 .333-3.895l.14-.704a3.23 3.23 0 0 0-.035-1.476l-2.209-8.682V88.953l8.064.36Z" fill="#E6F6FF"/><path d="M22.482 110.298s1.262-9.351.631-13.692c-.648-4.325-2.84 5.01-2.84 5.01l2.21 8.682Z" fill="#B4E1EF"/><path d="m14.824 89.313-1.42 3.14c-.631 1.425-.21 3.055.28 4.462.07.206.088.412.035.618a160.84 160.84 0 0 0-1.051 5.061c-.421 2.197-.386 4.668-.351 5.646.017.274-.053.549-.193.806l-1.245 2.282a10.143 10.143 0 0 0-1.227 4.376l-.368 10.467c-.017.292.228.532.526.532h5.96c.28 0 .491-.257.421-.532l-.298-1.184a4.92 4.92 0 0 1 .018-2.522c.455-1.785 1.402-7.808 2.611-9.609 1.403-2.094 1.56-2.9 2.016-5.028.456-2.111 1.473-7.138 1.876-9.043.105-.497.35-.96.701-1.338l.894-.91V89.28h-9.185v.034Z" fill="#E6F6FF"/><path d="M14.735 124.557c.035 0 .088-.034.088-.068.526-4.101 2.086-11.102 2.927-13.144.386-.961.667-1.956.79-2.968l.262-2.094c0-.051-.035-.086-.07-.103a.118.118 0 0 0-.105.069l-.263 2.093a11.515 11.515 0 0 1-.771 2.934c-.842 2.059-2.402 9.077-2.945 13.178 0 .052.035.086.087.103-.017 0 0 0 0 0ZM18.8 105.631c.036 0 .088-.034.088-.069l1.122-8.734c0-.051-.035-.085-.07-.103a.118.118 0 0 0-.105.069l-1.122 8.734c0 .069.035.103.088.103ZM20.012 96.211c.035 0 .087-.034.087-.069l.263-2.093c0-.052-.035-.086-.07-.103a.118.118 0 0 0-.105.069l-.263 2.093c0 .051.035.086.088.103-.018 0 0 0 0 0ZM28.092 123.357c.053 0 .088-.035.088-.086l-.14-5.954a54.513 54.513 0 0 1 .262-8.288c.088-.807.088-1.613-.017-2.42l-.175-1.441c0-.051-.053-.086-.106-.069-.052 0-.087.052-.07.103l.175 1.442c.106.789.106 1.596.018 2.385a54.89 54.89 0 0 0-.263 8.322l.14 5.954c0 .017.035.052.088.052ZM27.794 103.623c.053 0 .088-.051.088-.102l-1.017-8.134c0-.051-.052-.086-.105-.069-.053 0-.088.052-.07.103l1.017 8.134c0 .034.035.068.087.068ZM13.42 92.453l15.075-1.476-.158-1.664H14.822l-1.403 3.14Z" fill="#B4E1EF"/><path d="M16.821 93.997c.018 0 1.981-.051 2.472-2.265.017-.051-.018-.086-.07-.103-.053-.017-.088.017-.105.069-.474 2.076-2.297 2.128-2.314 2.128-.053 0-.088.034-.088.085.017.035.07.086.105.086Z" fill="#B4E1EF"/><path d="M18.871 93.02c.036 0 .053-.018.07-.035.509-.738.579-1.476.579-1.51 0-.051-.035-.086-.088-.086-.052 0-.087.035-.087.086 0 0-.07.72-.544 1.424-.035.035-.017.086.018.12h.052Z" fill="#E6F6FF"/><path d="M17.872 128.573c.088-.669-.052-1.098-.894-1.493-.824-.377-2.104-1.269-3.786-1.63-1.683-.36-3.208.344-3.629 1.476-.42 1.133-.473 1.647-.473 1.647h8.782Z" fill="#2E2D5C"/><path d="M17.872 128.573s-.018.669-.579.669H9.825c-.56 0-1.069.086-.7-.892 0 0 .648.223 1.139.223h1.718c1.472 0 3.856-.584 5.89 0Z" fill="#E6F6FF"/><path d="M32.65 128.572c.105-.669.018-1.561-1.07-1.733-2.05-.326-2.436-1.132-4.504-1.664-2.052-.515-4.19.618-4.698 1.75-.509 1.133-.596 1.647-.596 1.647H32.65Z" fill="#2E2D5C"/><path d="M32.65 128.573s-.017.669-.7.669h-9.24c-.683 0-1.226-.052-.823-1.081.473 0 1.525.412 2.139.412h2.12c1.806 0 4.822-.498 6.504 0Z" fill="#E6F6FF"/><path d="M14.84 125.45a.134.134 0 0 0 .07-.034c.035-.035.035-.086-.017-.121-.018-.017-1.946-1.613-3.594-.669-.035.017-.053.069-.035.12.018.035.07.052.123.035 1.542-.876 3.365.635 3.383.652.017 0 .053.017.07.017ZM28.933 125.45c.035 0 .053-.017.07-.035.035-.034.018-.085-.017-.12l-.07-.051c-.947-.635-1.77-1.184-3.804-.875-.053 0-.088.051-.07.103 0 .051.052.086.105.068 1.963-.308 2.717.206 3.681.841l.07.052c0 .017.018.017.035.017ZM22.273 125.346c.035 0 .07-.034.087-.068l.49-2.076c.018-.052-.017-.086-.07-.103-.052-.017-.087.017-.104.068l-.491 2.077c-.018.051.017.085.07.102h.018Z" fill="#B4E1EF"/><path d="M42.73 81.367s.35 1.013.56 1.562c.21.549-.473.463-.876.086v.549c0 .137-.123.274-.263.257-.14-.017-.316-.12-.509-.429 0 0-.368.498-.666.103-.315-.446-.245-2.437-.245-2.437l1.998.31Z" fill="#FFAD91"/><path d="M42.415 83.1c.017 0 .035 0 .052-.017.035-.034.053-.085.018-.12l-.701-1.046c-.035-.035-.088-.052-.123-.018-.035.035-.053.086-.018.12l.702 1.047c.017.017.035.034.07.034ZM41.713 83.513c-.298-.652-.929-3.586-.929-3.586l-1.35-.052s-1.437 2.626-.876 3.072c.649.515 2.244.034 2.244.034.017.155.052.292.087.395.246.703.824.67.824.137ZM43.167 82.62l-1.63-1.442 1.192.19.438 1.252Z" fill="#EC6C4D"/><path d="m39.943 79.754 2.244.515c.14.034.28.103.403.189l.736.532c.123.086.21.189.298.309l.439.703c.087.138.035.326-.106.412-.087.052-.21.052-.35-.017-.35-.189-.806-.67-.806-.67l-.895-.343-1.56-.308-.403-1.322Z" fill="#FFAD91"/><path d="M40.714 82.466c.017 0 .035 0 .053-.017.333-.206.525-.55.525-.927 0-.36-.175-.686-.49-.892-.035-.034-.088-.017-.123.017s-.018.086.017.12a.879.879 0 0 1 .404.755.88.88 0 0 1-.439.772c-.035.017-.052.086-.035.12.035.052.053.052.088.052ZM40.573 85.864l-.105.085a.134.134 0 0 1-.158 0l-.105-.085c-.035-.035-.053-.069-.053-.103v-1.82h.474v1.802a.154.154 0 0 1-.053.12Z" fill="#fff"/><path d="m39.54 83.444.158-1.098a.451.451 0 0 1 .455-.378l.579.017c.21.017.386.172.42.378l.158 1.115a.41.41 0 0 1-.403.464h-.893c-.299 0-.51-.224-.474-.498ZM23.99 65.306s-1.314-.171-1.77.773c-.456.943.736 2.488.736 2.488l1.035-3.26Z" fill="#2E2D5C"/><path d="M31.178 71.106c1.595.91 1.964 2.488 1.964 4.17v4.959l2.594-.584s1.91.155 2.384 2.025c.474 1.87-1.244 3.723-3.05 4.444-1.788.72-3.436.892-4.505.498-2.016-.721-2.28-2.694-2.28-5.302.018-2.643 2.893-10.21 2.893-10.21Z" fill="#95CD00"/><path d="M28.303 81.299c0-1.459.895-4.479 1.7-6.864l.036-.034c2.103 3.69.158 12.029.158 12.029-1.666-.824-1.893-2.694-1.893-5.131Z" fill="#006833"/><path d="M27.585 69.116s2.086 1.15 3.593 1.99c1.788.996.456 5.87-1.437 8.649l.28 2.728a2.475 2.475 0 0 1-.526 1.802l-.193.257.299 2.934c.157 1.75-1 3.415-5.067 2.986 0 0-2.945 1.767-4.102-.154 0 0-1.788 1.27-2.892-.223 0 0-1.963.12-3.155-.532-1.192-.652-1.736-2.3-.754-4.273l8.817-17.382 5.137 1.218Z" fill="#95CD00"/><path d="M20.397 90.582s-1.998 1.321-3.103-.154c0 0-2.016-.086-3.225-.738-1.192-.652-1.806-2.351-.824-4.324l.754-1.613 10.535 6.709c0-.017-2.98 2.025-4.137.12ZM29.916 79.754c.035 0 .053-.017.07-.034 1.192-1.665 1.7-3.98 1.7-3.998.018-.052-.017-.086-.07-.103-.052-.017-.087.017-.104.069 0 .017-.491 2.299-1.666 3.929-.035.034-.017.086.018.12.017.017.035.017.052.017Z" fill="#006833"/><path d="M22.448 67.88s-1.84-.566-4.33-.291c0 0-3.365 1.647-5.416 5.662-1.245 2.42-1.753 4.856-1.981 6.4a4.433 4.433 0 0 0 .613 2.9l1.157 1.888s-.052 1.578 1.227 2.179c1.263.6 1.315.892 1.753 1.836.439.96 2.437 1.527 4.453.67 1.998-.859 2.49-3.158 1.315-4.36-1.175-1.2-2.086-.891-2.314-2.213-.333-1.904-1.788-2.865-1.788-2.865a6.488 6.488 0 0 0 2.138-2.917l3.173-8.889Z" fill="#95CD00"/><path d="M19.924 89.21h.035c1.017-.43 1.736-1.288 1.946-2.283.175-.84-.053-1.647-.596-2.196-.473-.498-.93-.738-1.28-.927-.526-.291-.876-.48-.999-1.235-.28-1.648-1.402-2.608-1.735-2.866a6.467 6.467 0 0 0 2.068-2.883l.544-1.492c.017-.052 0-.086-.053-.103s-.088 0-.105.051l-.544 1.493a6.318 6.318 0 0 1-2.103 2.883.13.13 0 0 0-.035.068c0 .035.017.052.035.069.017.017 1.437.978 1.753 2.814.14.824.56 1.064 1.087 1.356.368.206.771.429 1.244.909.509.515.701 1.27.544 2.042-.193.944-.877 1.75-1.84 2.162-.053.017-.071.069-.053.12.017 0 .052.017.087.017Z" fill="#006833"/><path d="M19.153 77.146c.018 0 .035 0 .053-.017l1.437-.978c.035-.034.053-.086.018-.12-.036-.034-.088-.052-.123-.017l-1.438.978c-.035.034-.052.086-.017.12.018.017.035.034.07.034Z" fill="#006833"/><path d="m23.167 88.093-1.91-1.767s-1.596-.12-2.227 1.012c-.701 1.253-.193 2.128-.193 2.128l2.542.738 1.788-2.11Z" fill="#95CD00"/><path d="M18.714 89.192h.018c.052-.017.07-.051.07-.103-.088-.377-.105-.978.315-1.716.561-.978 1.894-.978 2.104-.96l1.735 1.612a.086.086 0 0 0 .123 0 .082.082 0 0 0 0-.12l-1.753-1.63c-.017-.017-.035-.017-.052-.017-.07 0-1.648-.103-2.314 1.047-.439.789-.421 1.441-.334 1.836a.097.097 0 0 0 .088.051Z" fill="#006833"/><path d="M19.68 85.744s.929 1.973-1.455 2.128l1.455-2.128Z" fill="#92CB00"/><path d="M18.224 87.956c.771-.051 1.28-.291 1.543-.72.403-.653.017-1.493 0-1.545-.018-.034-.07-.069-.123-.034-.053.017-.07.068-.035.12 0 0 .368.806.017 1.373-.228.377-.7.583-1.402.635-.053 0-.088.051-.088.085 0 .052.035.086.088.086ZM33.141 80.218l-.876.189c-.105.017-.158-.103-.07-.155l.946-.686v.652Z" fill="#006833"/><path d="M21.87 67.744s1.823 4.29 3.208 10.621c0 0 3.365-1.819 3.874-8.493l-1.368-.755-5.714-1.373Z" fill="#fff"/><path d="M27.988 74.418s.666-2.505.333-5.405l1-.875c-.018 0 .858 4.118-1.333 6.28Z" fill="#2E2D5C"/><path d="M23.832 63.23s.262 3.09-1.14 4.634c0 0 .386 3.311 2.086 4.667 1.192.943 3.138.411 3.138-1.974v-7.326h-4.084Z" fill="#FFAD91"/><path d="M27.795 71.552s-2.033-2.007-2.42-3.826c-.385-1.819.317-2.23.317-2.23l2.243-2.283v7.327c0 .395-.052.738-.14 1.012Z" fill="#EC6C4D"/><path d="M29.618 58.872c2.191.772 2.962 3.123 2.314 5.37-.07.241-.193.464-.368.67l-.35.377a.844.844 0 0 0-.229.447c-.087.377-.28 1.132-.49 1.956-.299 1.167-1.438 1.836-2.14 1.836-.7 0-1.682-.36-2.278-1.253-.596-.892-.947-1.235-.824-2.179.14-.944.263-1.888.263-1.888s-1.175-.909-1.175-2.247c.018-2.866 2.227-4.153 5.277-3.089Z" fill="#FFAD91"/><path d="M30.373 65.941s-.509.103-1.035-.326c0 0-.666-.309-1.21-.154-.543.154-.683.635.123.892 0 0 .386.446 1.157.412 0 0 .228.395.965.257 0 0 .35.258.543.103.21-.154.053-.652-.543-1.184ZM26.182 63.213h.77s.65-1.201.281-2.488c0 0-2.489-.806-1.928-1.39.14-.137.333-.275.333-.275h-.63c-.702 0-1.333.79-1.701 1.39-.246.395-.368.841-.368 1.287v.498c0 .498.14.978.42 1.39.193.274.474.532.842.618.929.223 1.98-1.03 1.98-1.03Z" fill="#2E2D5C"/><path d="M28.076 67.126a.134.134 0 0 0 .07-.035.082.082 0 0 0 0-.12c-.824-.703-.684-1.63-.684-1.63 0-.051-.017-.086-.07-.103-.052 0-.087.017-.105.069 0 .034-.158 1.03.736 1.801.018.018.035.018.053.018Z" fill="#EC6C4D"/><path d="M27.093 65.41h.49c.053 0 .088-.034.088-.086 0-.052-.035-.086-.087-.086h-.491c-.053 0-.088.034-.088.086 0 .052.053.086.088.086ZM30.425 65.787c.053 0 .088-.034.088-.085v-1.528c0-.05-.035-.085-.088-.085-.053 0-.088.034-.088.085v1.528c0 .034.053.085.088.085Z" fill="#EC6C4D"/><path d="M26.515 63.213c0-.635-.14-1.236-.824-1.407-.684-.172-1.14.326-1.192.892-.053.6.158 1.064.526 1.544s.298.858.77.892c.544.052.72-.703.72-.703v-1.218Z" fill="#FFAD91"/><path d="M26.095 64.243c.035 0 .07-.017.07-.052.018-.034 0-.085-.035-.12-.403-.206-.35-.429-.263-.72.053-.172.105-.378.053-.584a.706.706 0 0 0-.772-.497c-.052 0-.087.051-.07.103.018.051.053.086.105.068.018 0 .456-.051.579.378.052.154 0 .326-.053.497-.087.292-.175.635.35.91.018.017.036.017.036.017ZM25.639 67.915c.017 0 .035 0 .052-.017.035-.035.053-.086.018-.12-.982-1.373-.193-2.746-.193-2.763a.09.09 0 0 0-.035-.12.093.093 0 0 0-.123.034c0 .017-.841 1.493.193 2.952a.135.135 0 0 0 .088.034Z" fill="#EC6C4D"/><path d="M23.886 73.698s.894-1.716.456-3.896c-.35-1.664-2.104-3.723-2.104-3.723l-.77 1.596c-.018 0 1.454 2.951 2.418 6.023Z" fill="#2E2D5C"/><path d="M24.323 87.802c.035 0 .07-.017.088-.052.42-.943-.088-2.385-.175-2.642 1.648-3.226.946-6.143.929-6.177-.018-.052-.053-.069-.105-.069-.053.017-.07.052-.07.103 0 .034.7 2.9-.93 6.092-.017.017-.017.051 0 .068 0 .017.614 1.596.193 2.54-.017.051 0 .085.053.12 0 .017.017.017.017.017ZM23.623 77.935c.035 0 .07-.034.087-.069 0-.051-.017-.085-.07-.103l-3.33-.566c-.053-.017-.088.017-.105.069 0 .051.017.086.07.103l3.348.566ZM27.023 78.09h2.77c.052 0 .087-.034.087-.085 0-.052-.035-.086-.087-.086h-2.77c-.053 0-.088.034-.088.086 0 .051.035.086.088.086ZM23.711 78.347l.228.6a.295.295 0 0 1-.28.395.295.295 0 0 1-.28-.394l.227-.6c0-.052.07-.052.105 0ZM27.093 78.399l.228.6a.295.295 0 0 1-.28.395.295.295 0 0 1-.28-.395l.227-.6c0-.052.088-.052.105 0Z" fill="#fff"/><path d="M28.514 85.246h.035c.648-.24 1.016-.738 1.034-.755.035-.035.018-.086-.018-.12-.035-.035-.087-.018-.122.017 0 0-.35.48-.964.703-.053.017-.07.069-.053.103a.097.097 0 0 0 .088.052Z" fill="#006833"/><path d="M23.167 88.094h1.21c.262 0 .525.017.77.068l.492.086.859-.069c.122-.017.227.086.245.206 0 .155-.035.344-.193.464-.298.24-.876.326-.876.326h-.684c-.07 0-.105.086-.035.12l1.315.858c.298.189.578.412.824.67.262.256.578.6.736.771.298.31-.123.79-.701.446-.631-.377-1.263-.892-1.263-.892l-.788-.24c-.088-.034-.158.069-.105.137.315.498 1.051 1.682 1.367 2.162.385.618-.316.755-.771.31l-1.368-1.34c-.052-.05-.158 0-.14.086l.088.24c.087.292.227.55.403.807.14.206.298.48.333.738.087.48-.386.55-.631.309a5.017 5.017 0 0 1-.316-.326s-.193.24-.49 0c-.158-.137-.492-.532-.754-.858a4.392 4.392 0 0 1-.631-1.064c-.21-.515-.509-1.253-.667-1.905-.298-1.08.579-2.11 1.77-2.11Z" fill="#FFAD91"/><path d="M23.99 92.16c.017 0 .035 0 .053-.017a.104.104 0 0 0 .017-.12l-.263-.308a.11.11 0 0 0-.123-.018.104.104 0 0 0-.017.12l.263.31c.035.016.052.034.07.034ZM24.815 89.243c.035 0 .053-.017.07-.034.035-.034.018-.086-.017-.12l-.509-.326c-.035-.034-.087-.017-.123.017-.035.034-.017.086.018.12l.508.326c.035 0 .035.017.053.017Z" fill="#EC6C4D"/><path d="m37.945 80.184-1.84.223s-.947 1.51-.159 2.797c.79 1.287 2.051.978 2.682.24l-.683-3.26Z" fill="#95CD00"/><path d="M37.332 84.165c.052 0 .123 0 .175-.018.053 0 .088-.051.07-.103-.017-.051-.052-.085-.105-.068-.578.068-1.087-.223-1.455-.824-.754-1.218.158-2.694.158-2.694a.09.09 0 0 0-.035-.12.094.094 0 0 0-.123.034c-.035.069-.964 1.562-.158 2.883.386.6.894.91 1.473.91Z" fill="#006833"/><path d="M18.1 67.59s2.07-.017 2.315 2.282L18.1 67.59Z" fill="#92CB00"/><path d="M20.433 69.974c.052 0 .087-.051.087-.103-.263-2.334-2.366-2.368-2.401-2.368-.053 0-.088.034-.088.086 0 .051.035.086.088.086.122 0 1.98.034 2.226 2.213 0 .052.035.086.088.086Z" fill="#006833"/><path d="M31.179 71.108s1.174.875.806 2.745l-.806-2.745Z" fill="#92CB00"/><path d="M31.985 73.92c.035 0 .07-.034.088-.068.386-1.888-.824-2.814-.841-2.831-.035-.035-.088-.017-.123.017s-.018.086.017.12c.053.034 1.14.875.772 2.66 0 .051.017.103.087.103Z" fill="#006833"/><path d="M39.82 80.527v.171c0 .12.07.24.193.292l1.367.618c.14.051.28.017.386-.086l1.455-1.681c.052-.052.07-.138.07-.206v-.412c0-.138-.088-.24-.21-.292l-1.42-.55c-.14-.05-.299-.016-.386.104l-1.403 1.853a.341.341 0 0 0-.052.189Z" fill="#2E2D5C"/><path d="M38.628 83.444c-.824 0-1.438-1.133-1.14-2.42.175-.755.614-1.459.947-1.905a.83.83 0 0 1 .999-.257l.561.24c.21.086.42.138.649.155l.999.068c.158.017.28.155.245.31a.602.602 0 0 1-.245.36c-.298.257-.947.274-1.438.274h-.56s.192.96-.544 1.682c.456.617.316 1.39-.473 1.493Z" fill="#FFAD91"/><path d="M23.061 67.262a.134.134 0 0 0 .07-.034c.036-.034.036-.086-.017-.12 0 0-.719-.618-.579-1.15.018-.051-.017-.085-.07-.103-.052-.017-.087.017-.105.069-.157.635.614 1.304.649 1.321.017 0 .035.017.052.017Z" fill="#4F4F7F"/><path d="m38.293 85.554.07.12c.035.051.088.069.14.051l.123-.051a.21.21 0 0 0 .088-.086l.578-1.716-.42-.137-.579 1.716c-.017.017-.017.069 0 .103Z" fill="#fff"/><path d="m40.049 83.563.21-1.098a.437.437 0 0 0-.316-.498l-.56-.154c-.21-.051-.421.034-.509.223l-.508 1.013c-.105.223 0 .48.245.566l.456.137.403.137a.421.421 0 0 0 .579-.326Z" fill="#4F4F7F"/><path d="M39.47 82.328c.017 0 .053 0 .07-.017a.082.082 0 0 0 0-.12.872.872 0 0 1-.263-.635c0-.498.42-.91.93-.91.192 0 .367.052.525.155.035.034.088.017.123-.017.035-.035.017-.086-.018-.12a1.121 1.121 0 0 0-.613-.19c-.614 0-1.105.481-1.105 1.082 0 .292.123.566.316.755 0 0 .017.017.035.017Z" fill="#fff"/><path fill-rule="evenodd" clip-rule="evenodd" d="M144.942 4.453 72.293.576C71.047.509 70 1.484 70 2.711v98.257c0 1.182.974 2.139 2.175 2.139h72.649c1.201 0 2.176-.957 2.176-2.139V6.588c0-1.135-.904-2.073-2.058-2.135Z" fill="#F2F1F0"/><path fill-rule="evenodd" clip-rule="evenodd" d="M83.224 18.863c0-.433.358-.784.798-.784h51.154c.44 0 .798.351.798.784a.792.792 0 0 1-.798.785H84.022a.791.791 0 0 1-.798-.785Z" fill="#79CF00"/><path fill-rule="evenodd" clip-rule="evenodd" d="M83.224 30.639c0-.49.405-.888.904-.888h33.93c.499 0 .904.397.904.888 0 .49-.405.888-.904.888h-33.93a.896.896 0 0 1-.904-.888ZM97.65 42.31c0-.49.405-.888.904-.888h36.09c.499 0 .904.398.904.888s-.405.888-.904.888h-36.09a.896.896 0 0 1-.904-.888ZM83.224 52.815c0-.49.405-.889.904-.889h51.363c.499 0 .903.398.903.889 0 .49-.404.887-.903.887H84.128a.896.896 0 0 1-.904-.887Z" fill="#DBD3C1"/><path fill-rule="evenodd" clip-rule="evenodd" d="M82.021 64.486c0-.49.404-.888.904-.888h8.054c.5 0 .904.397.904.888 0 .49-.405.888-.904.888h-8.054a.896.896 0 0 1-.904-.888Z" fill="#FFB021"/><path fill-rule="evenodd" clip-rule="evenodd" d="M121.693 30.639c0-.49.405-.888.904-.888h12.162c.499 0 .904.397.904.888 0 .49-.405.888-.904.888h-12.162a.896.896 0 0 1-.904-.888Z" fill="#DBD3C1"/><path d="M145.715 104.791c-1.291 0-4.952 1.545-6.111 1.956a10.99 10.99 0 0 0-3.686-.644c-6.337 0-11.473 5.36-11.473 11.969 0 .208.019.408.03.611-2.687-1.107-5.399-2.78-8.131-4.652-1.426-4.917-5.8-8.496-10.978-8.496-.445 0-.886.032-1.317.084-3.403-1.984-6.798-3.391-10.156-3.484-17.094-.485-34.052 5.788-51.034 10.603-1.767-4.239-5.81-7.203-10.522-7.203-1.214 0-2.384.2-3.484.566a11 11 0 0 0-3.484-.566c-6.337 0-11.473 5.36-11.473 11.969 0 .214.021.424.03.636-2.684.27-5.357.643-7.972 1.312-1.153.294-3.477.578-3.817 1.993-.3 1.251 1.153 2.71 2.153 3.176 1.277.597 2.743.587 4.153.571 2.685-.03 5.38-.051 8.073-.072 2.104 2.659 5.287 4.355 8.853 4.355h6.968c3.61 0 6.826-1.743 8.928-4.463 4.642-.004 19.867-.025 21.053-.025 2.314 3.64 7.15 5.374 10.268 5.374h5.784c3.666 0 7.844-2.853 9.238-6.048l3.404-.016c1.259 2.759 4.498 4.484 8.173 4.484 1.939 0 3.31.051 3.31.051 3.498 0 6.359-1.787 8.473-4.649 2.876-.012 9.723-.021 12.736-.021.454 0 3.873-.238 4.805-.373 2.16 3.524 5.36 5.581 9.814 5.581h5.026c5.906 0 10.995-4.584 10.995-11.195 0-6.611-2.293-13.384-8.629-13.384Z" fill="#000"/><path d="M.795 120.396c-.25-1.867-.79-3.587-.795-4.127 0-.191.245-1.182.38-1.683.508-1.298 1.125-2.622 2.095-4.302l1.818-2.918c.205-.342.51-.626.79-.941 2.705-3.046 9.018-4.533 11.58-5.311 8.48-2.582 16.252-4.565 16.252-4.565 9.834-5.412 20.708-11.385 28.779-14.002 5.45-1.766 12.35-2.158 20.104-2.463 7.45-.291 18.543-.9 25.644-1.02 8.921-.152 20.869-.096 24.174 1.943 7.324 4.516 17.758 11.971 23.057 13.43 2.783.767 5.313 2.324 6.288 3.26.764.737 1.333 1.695 1.484 2.753.252 1.75.501 3.659 1.077 6.022 0 0 1.552 1.552 1.475 3.027-.103 1.948-.324 4.621-.853 6.6-.555 2.069-1.321 4.845-2.741 5.618-1.461.797-5.455.389-7.795.641.722-3.262.664-6.525-.315-9.545-1.589-4.913-6.888-7.87-11.771-6.19-5.215 1.795-7.254 7.735-7.709 13.416a1.902 1.902 0 0 1-1.831 1.762c-14.405.455-29.378.585-43.752.31.795-7.066-1.559-13.826-7.728-15.674-6.166-1.848-11.969 2.798-13.4 9.21-.53 2.386-.606 5.697-2.833 6.709-.707.321-1.51.324-2.287.324-17.688-.035-33.788.452-51.476.417-2.566-.005-5.917-.04-8.038-.394-.71-.121-1.557-1.435-1.673-2.307Z" fill="#97CF00"/><path d="M80.193 96.58c1.648-.534 2.932-1.117 4.316-2.436a551.598 551.598 0 0 1 11.47-10.62c3.797-3.402 6.225-3.337 11.858-3.507 8.946-.268 20.47-1.046 23.775.993 7.324 4.516 17.758 11.971 23.057 13.43 2.783.767 5.313 2.323 6.288 3.26.764.737 1.333 1.695 1.484 2.753.252 1.75.501 3.658 1.077 6.021 0 0 1.552 1.553 1.475 3.028-.103 1.948-.324 4.621-.853 6.599-.555 2.07-1.321 4.845-2.741 5.619-1.461.797-5.455.389-7.795.641.722-3.263.664-6.525-.315-9.545-1.589-4.913-6.888-7.87-11.771-6.19-5.215 1.794-7.254 7.735-7.709 13.416a1.902 1.902 0 0 1-1.831 1.762c-14.405.454-29.378.585-43.752.31.795-7.066-1.559-13.826-7.728-15.675-6.166-1.848-11.969 2.799-13.4 9.21-.53 2.387-.605 5.698-2.833 6.71-.706.321-1.51.321-2.287.324-3.23.007-6.609 0-9.056 0-1.004 0 2.503-2.671 2.326-8.01-.186-5.654-1.89-8.117 1.07-10.086 6.462-4.305 20.727-6.987 23.875-8.008Z" fill="#59A800"/><path d="M78.573 126.416c3.778 0 6.84-3.73 6.84-8.332 0-4.601-3.062-8.331-6.84-8.331-3.777 0-6.84 3.73-6.84 8.331 0 4.602 3.063 8.332 6.84 8.332ZM144.856 126.01c3.602 0 6.523-3.558 6.523-7.947s-2.921-7.947-6.523-7.947c-3.603 0-6.523 3.558-6.523 7.947s2.92 7.947 6.523 7.947Z" fill="#fff"/><path d="m40.002 122.212-26.535.195a1.16 1.16 0 0 1-1.144-1.403l.52-2.964a1.979 1.979 0 0 1 1.913-1.564l21.056-.226a2.698 2.698 0 0 1 1.815.679l3.12 3.299c.779.688.297 1.977-.745 1.984ZM34.782 111.985H12.846l-.804-4.143 24.977-.194-2.237 4.337Z" fill="#000"/><path d="m45.257 112.007-12.587.338a.355.355 0 0 1-.282-.581l3.452-4.162a.783.783 0 0 1 .557-.282l24.23-1.359a.405.405 0 0 1 .325.672l-2.768 3.162a2.932 2.932 0 0 1-1.855.979l-8.8 1.062c-.755.096-1.512.152-2.272.171ZM14.127 111.953a.282.282 0 0 1-.261.394l-6.668-.238c-1.153-.047-1.96-.408-3.139-1.07l-1.5-.883 1.845-2.962 7.439.322a.596.596 0 0 1 .52.349l1.764 4.088ZM55.005 119.617H48.28c-.315 0-.613-.142-.814-.387l-.703-.866a.637.637 0 0 1 .312-1.012l6.215-1.48c1.01-.3 2.086.182 2.529 1.138l.38.738c.405.87-.231 1.869-1.194 1.869ZM8.028 119.618H3.55a1.353 1.353 0 0 1-1.3-.979l-.588-2.041a.623.623 0 0 1 .758-.774l4.97 1.055c.36.094.649.357.779.704l.443 1.189a.626.626 0 0 1-.585.846Z" fill="#fff"/><path d="M78.082 95.267c-5.456.38-26.222 1.517-43.106 1.923-.247.007-.34-.322-.13-.45 3.139-1.915 15.66-9.415 24.998-12.955.11-.042.217-.067.331-.084 1.217-.165 9.05-1.104 33.4-1.465.27-.005.408.33.205.51L80.748 94.338c-.753.668-1.666.86-2.666.93ZM138.532 94.789l-51.06.406c-.734.006-1.093-.893-.56-1.394l10.005-9.399a10.591 10.591 0 0 1 7.25-2.87h17.054c2.748 0 5.404.983 7.488 2.77l10.396 8.912c.631.538.254 1.57-.573 1.575Z" fill="#000"/><path d="m163.523 106.473-6.132.24a.326.326 0 0 1-.307-.468l2.428-5.066c.179-.392.566-.648.995-.662l1.939-.063 1.077 6.019Z" fill="#FF6163"/><path d="M23.232 110.389h-1.447a.39.39 0 0 1-.268-.105l-.687-.627a.396.396 0 0 1 .268-.689h3.034c.39 0 .545.501.228.722l-.9.627a.385.385 0 0 1-.228.072Z" fill="#fff"/><path d="M117.216 119.738c-7.979 0-16.234-.086-24.966-.263-.221-.005-.503-.035-.722-.228-.21-.187-.324-.478-.312-.8.242-7.098.359-15.26-1.347-22.265a.349.349 0 1 1 .678-.165c1.724 7.091 1.61 15.308 1.365 22.453-.004.108.028.208.077.252.038.033.129.049.273.054 13.034.261 24.999.326 36.578.198.359-.005.597-.07.73-.201.158-.156.193-.456.226-.75.757-6.516 5.26-12.789 10.75-15.02a24.155 24.155 0 0 0-.967-7.34.349.349 0 1 1 .671-.196 24.85 24.85 0 0 1 .988 7.788.349.349 0 0 1-.223.315c-5.274 2.029-9.797 8.275-10.525 14.532-.044.375-.097.842-.431 1.17-.359.352-.864.399-1.212.401-3.824.044-7.695.065-11.631.065Z" fill="#006833"/><path d="M115.271 119.56h-.026a.35.35 0 0 1-.324-.373c.427-6.034.865-15.02-.254-23.372a.352.352 0 0 1 .301-.394.348.348 0 0 1 .394.3c1.128 8.416.689 17.451.258 23.515a.352.352 0 0 1-.349.324ZM112.156 99.718h-5.523a.35.35 0 1 1 0-.699h5.523a.349.349 0 1 1 0 .7ZM137.91 99.455h-4.863a.35.35 0 1 1 0-.7h4.863a.35.35 0 1 1 0 .7ZM116.362 81.531l-14.167 13.547 18.492-.147 7.413-11.107a11.498 11.498 0 0 0-6.877-2.293h-4.861ZM125.022 94.01a.351.351 0 0 1-.286-.55 109.672 109.672 0 0 0 4.071-6.345.349.349 0 0 1 .48-.121.349.349 0 0 1 .121.48 111.35 111.35 0 0 1-4.097 6.385.354.354 0 0 1-.289.151ZM43.148 96.952c9.268-.315 18.773-.767 25.73-1.14l24.868-13.519a.28.28 0 0 0-.177-.053c-6.691.1-12.13.242-16.532.4l-33.89 14.312ZM42.065 94.861a.351.351 0 0 1-.14-.671l13.85-6.085a.35.35 0 1 1 .282.641l-13.85 6.085a.355.355 0 0 1-.142.03Z" fill="#006833"/><path d="m116.47 94.966-3.23.026-.932-13.46h1.615l2.547 13.434ZM78.573 119.734c.748 0 1.354-.738 1.354-1.65 0-.911-.607-1.65-1.354-1.65-.748 0-1.354.739-1.354 1.65 0 .912.606 1.65 1.354 1.65ZM144.857 119.734c.748 0 1.354-.738 1.354-1.65 0-.911-.606-1.65-1.354-1.65-.748 0-1.354.739-1.354 1.65 0 .912.606 1.65 1.354 1.65ZM151.482 114.537l-2.715 1.893a.823.823 0 0 1-1.144-.192.81.81 0 0 1 .21-1.134l2.715-1.893a.823.823 0 0 1 1.144.191.816.816 0 0 1-.21 1.135ZM144.516 110.002l.382 3.286a.825.825 0 0 1-.711.919.814.814 0 0 1-.901-.723l-.383-3.286a.826.826 0 0 1 .711-.918.813.813 0 0 1 .902.722ZM138.267 114.903l3.125 1.123a.832.832 0 0 1 .512 1.049.808.808 0 0 1-1.046.487l-3.125-1.123a.832.832 0 0 1-.513-1.049.81.81 0 0 1 1.047-.487ZM140.371 124.321l1.818-2.759a.803.803 0 0 1 1.121-.238c.368.249.464.76.214 1.139l-1.817 2.76a.804.804 0 0 1-1.121.237.827.827 0 0 1-.215-1.139ZM149.026 124.197l-2.141-2.484a.823.823 0 0 1 .079-1.156.811.811 0 0 1 1.149.081l2.141 2.485a.823.823 0 0 1-.079 1.156.81.81 0 0 1-1.149-.082ZM85.198 114.537l-2.715 1.893a.824.824 0 0 1-1.144-.192.81.81 0 0 1 .21-1.134l2.714-1.893a.823.823 0 0 1 1.145.191.816.816 0 0 1-.21 1.135ZM78.232 110.002l.382 3.286a.826.826 0 0 1-.71.919.815.815 0 0 1-.903-.723l-.382-3.286a.825.825 0 0 1 .71-.918.813.813 0 0 1 .903.722ZM71.981 114.903l3.126 1.123c.43.154.66.625.512 1.049a.809.809 0 0 1-1.046.487l-3.125-1.123a.832.832 0 0 1-.513-1.049.81.81 0 0 1 1.046-.487ZM74.087 124.321l1.818-2.759a.803.803 0 0 1 1.12-.238c.369.249.465.76.215 1.139l-1.818 2.76a.804.804 0 0 1-1.12.237.828.828 0 0 1-.215-1.139ZM82.741 124.197l-2.141-2.484a.823.823 0 0 1 .079-1.156.811.811 0 0 1 1.149.081l2.141 2.485a.823.823 0 0 1-.079 1.156.81.81 0 0 1-1.149-.082Z" fill="#000"/><path d="M133.089 59.785c-.35-1.104-.78-2.18-1.48-3.095-.646-.861-1.722-1.346-2.799-1.372-1.076-.027-2.125.376-2.96 1.076-.457.377-.834.861-.915 1.453-.053.27 0 .565.054.861.215 1.534.538 3.04.942 4.548.161.619.431 1.291 1.023 1.534.807.296 1.695-.43 2.529-.216.269.081.215.431.269.78.081.835 0 1.535.054 1.562.054 0 2.018-.404 2.045-.431.781-.35.996-.323 1.722-.807.216-.135.592-.27.592-.485-.027-.296-.349-1.237-.565-2.233-.215-.942-.269-2.368-.511-3.175Z" fill="#FFAD91"/><path d="M127.438 122.914c1.076-.188 2.314-.296 3.363-.457-.08.996-.107 2.018-.027 3.041a14.297 14.297 0 0 1-3.363.484c-.162 0-.323 0-.458-.054-.565-.242.108-1.022.216-1.399.134-.323.322-1.615.269-1.615ZM136.022 123.534c.027-.054.511-.108.592-.135a13.987 13.987 0 0 1 2.583-.215c.027 1.022.108 2.018.243 3.014 0 .054.027.107 0 .134-.027.081-.108.108-.189.135-.995.323-2.233.296-3.175-.162-.565-.269-.781-.43-.592-.915.161-.538.404-1.318.538-1.856Z" fill="#006999"/><path d="M129.752 60.78c.027-.188.054-.457.027-.645 0-.377.027-.673-.162-.996-.188-.323-.699-.458-.969-.215-.43.35-.242.888-.188 1.291-.35.081-.377.027-.511-.296-.135-.35-.754-.565-.915-.915-.027-.053-.054-.134-.135-.161-.053-.027-.188.027-.242.027-.538.108-.807.35-1.426.134-.996-.35-1.399-1.049-1.292-1.749.081-.592.35-.942 1.346-1.184 1.399-.35 1.614-1.076 2.664-1.399.726-.215 2.233-.538 2.987.323l.188.188c1.05-.35 1.695.242 2.045 1.184.135.35.135.888.108 1.238-.108 1.803-.135 2.207.134 4.198.027.162-1.211.27-1.856.08-.754-.241-1.857-.672-1.803-1.102Z" fill="#000"/><path d="M129.886 62.153c-.457.78-1.022 1.587-1.776 2.072-.565.35-1.399.377-1.453.404.081.053.161.107.269.161.807.296 1.534-.162 2.368.08.269.081.215 1.561.242 2.207 0 .27 1.184-1.184 1.238-1.534-.027-1.21-.161-2.448-.888-3.39Z" fill="#EE6C4D"/><path d="M124.989 62.126c.054.135.78.027.995-.027.027 0 .054 0 .054-.027.027-.027.027-.054 0-.08-.054-.27-.484-1.803-.565-1.454-.161.592-.619 1.238-.484 1.588Z" fill="#FFAD91"/><path d="M125.743 101.01c-.296 1.507-.888 3.445-.969 4.494-.081 1.13.296 3.552.431 5.328.323 4.064.646 8.88.968 12.944 2.019.081 3.472-.189 5.086-.511-.376-6.001.646-11.006-.296-16.039 0 0 1.131-4.009 2.153-7.346 1.399 6.943 2.153 17.061 1.588 24.192 1.695.188 3.417.161 5.14-.027.941-6.109 1.237-10.576.538-16.711-.269-2.395 0-11.329 0-11.329.484-2.26.457-4.225.296-5.032-.242-1.21-.485-1.614-.942-2.96-.108-.296-.485 0-.754-.135-.215-.134-.484-.107-.753-.08-1.991.188-3.983.376-5.947.619-.888.107-2.126.053-2.96.376-.996.404-.969 1.319-1.238 2.395-.915 3.23-1.668 6.512-2.341 9.822Z" fill="#562B25"/><path d="M133.116 99.61c-.053 0-.107-.053-.134-.107a94.256 94.256 0 0 0-.35-1.56 94.521 94.521 0 0 1-.35-1.561c-.161-.78-.296-1.4-.457-2.18-.727-.43-1.615-1.238-1.642-1.292a.13.13 0 0 1 0-.188.13.13 0 0 1 .189 0s.941.861 1.641 1.265c.027.027.054.054.054.08.188.808.323 1.427.484 2.234.135.619.242 1.103.35 1.56.108.458.215.943.35 1.561.027.081-.027.135-.108.162l-.027.027Z" fill="#000"/><path d="M126.98 63.39h-.081c-.081 0-.134-.053-.134-.134 0-.08.053-.134.134-.134h.081c.081 0 .134.053.134.134 0 .08-.053.135-.134.135Z" fill="#EE6C4D"/><path d="M131.716 98.13c-.054.35-.081.808.108.97.215.188.457-.135.699-.081.135.027.242.134.377.134.161-.027.296-.296.457-.35.216-.053.431.189.619 0 .054-.053.108-.161.162-.215.107-.08.242.027.35.027.188.027.349-.161.457-.403.108-.243.135-.539.188-.808.108-.888.243-1.803.35-2.718a.654.654 0 0 0 0-.323c-.054-.188-.188-.269-.323-.323-.538-.215-2.422-1.21-2.798-.457-.189.404-.216 1.534-.269 2.018-.108.861-.243 1.695-.377 2.53Z" fill="#FFAD91"/><path d="M140.65 90.946a13.793 13.793 0 0 0-.485-1.722 1.255 1.255 0 0 0-.457-.08c-3.471-.324-6.943.134-10.333.86-.377.08-.781.189-1.131.377-.027 0-.027.027-.053.027-.054.215-.081.457-.162.726-.215.808-.43 1.642-.619 2.476.834.162 1.749-.134 2.584-.43 1.56-.539 3.148-1.077 4.789-1.211 1.561-.135 3.149.134 4.683.376.43.081.861.135 1.291.216 0-.7-.027-1.265-.107-1.615Z" fill="#000"/><path d="M128.702 65.624c.377-.35.942-.108.942-.108.834-.834 2.852-1.749 3.283-1.91.592-.215.834-.458 1.238-.242.376.215.915 1.264.915 1.264s1.453 1.319 2.152 2.1c2.046 2.206 2.799 5.677 2.664 8.691-.053 1.372-.269 2.745-.376 4.117-.377 4.602.376 6.136 1.48 10.63-.565.538-1.453.618-2.207.457-.753-.162-1.507-.458-2.287-.565-1.83-.242-3.552.753-5.167 1.614-1.614.862-2.906 1.83-4.682 1.319.673-4.09.942-5.759.888-10.064-.027-2.691-.457-4.763-.35-7.454.081-2.018.458-5.974 1.184-7.508l.35-.834s-1.184 1.292-1.184 1.238c.188-.808.619-2.234 1.157-2.745Z" fill="#FF6163"/><path d="M132.12 94.39a9.671 9.671 0 0 0 3.499.485c.107-.754.215-1.48.323-2.234.053-.323.107-.672.215-.995a5.13 5.13 0 0 1 .43-.861c.377-.754.646-1.561.888-2.368.054-.162.081-.35-.026-.485-.054-.054-.162-.08-.243-.108-1.264-.269-2.529-.564-3.794-.834-.646 1.13-.7 1.938-.834 3.256-.054.377-.592 4.09-.458 4.145ZM124.693 74.1c-.162.27-.458.674-.646.916-.269.323-.619.538-.996.78-2.718 1.75-6.054 4.09-8.665 5.974.431.969.835 1.964 1.265 2.933 4.978-2.368 10.952-5.086 14.424-9.364.592-.754 1.48-2.45 1.668-3.364.296-1.426-.619-5.194-2.529-4.844-.539.108-1.723 2.476-2.126 3.176-.646 1.157-1.749 2.61-2.395 3.794Z" fill="#FF6163"/><path d="M122.836 126.655c.915-.135 2.045-.7 2.88-1.265.861-.592.995-.861 1.56-.78.808.108 1.642.807 2.315.377.457-.296.753-1.077 1.264-.861.108.053.243.134.296.242.458 1.291.512 1.722.835 2.771.053.216.08.673-.027.862-.216.322-.754.403-1.157.457-2.907.296-3.768.484-6.701.484-.942 0-3.364-.107-3.391-.672-.053-1.292 1.346-1.507 2.126-1.615Z" fill="#000"/><path d="M133.277 129.4c-.726 0-3.363.134-3.525-.512-.242-1.076.431-1.345 1.292-1.668 1.049-.377 1.803-.646 2.637-1.211.592-.404.915-.673 1.426-1.023.592-.43 1.561-.43 2.18 0 .269.189.861.512 1.157.593.511.161.43-.35.7-.566.134-.08.295-.053.376.108.323.754.781 2.018.781 2.637 0 .162-.081.35-.189.458-.08.053-.188.08-.296.134-1.991.781-3.982 1.05-6.539 1.05Z" fill="#000"/><path d="M133.009 128.781c-.861 0-1.776-.054-2.691-.134-.081 0-.135-.081-.108-.135 0-.081.081-.134.162-.134 3.659.349 6.781 0 9.579-1.023.081-.027.162 0 .162.081 0 .08 0 .134-.081.161-2.153.807-4.467 1.184-7.023 1.184ZM123.858 128.297h-.188c-.834 0-1.695-.027-2.556-.243-.081-.027-.108-.08-.108-.161s.081-.108.161-.108c.835.216 1.669.216 2.476.242 1.884 0 3.821-.08 5.705-.296.081 0 .134.054.161.135 0 .081-.054.135-.107.135-1.83.188-3.687.296-5.544.296ZM130.343 127.382c-.08 0-.134-.054-.134-.135a2.404 2.404 0 0 1 .942-2.045c.054-.054.134-.027.188.027.054.054.027.134-.027.188a2.047 2.047 0 0 0-.834 1.803c0 .108-.054.162-.135.162Z" fill="#006999"/><path d="M139.466 127.732h-.027c-.081-.027-.108-.081-.081-.162.162-.538.081-1.103.054-1.668 0-.081.054-.135.108-.135.08 0 .134.054.161.135.054.538.108 1.184-.054 1.749-.053.054-.107.081-.161.081Z" fill="#006999"/><path d="M132.389 90.65c-.081 0-.134-.08-.134-.134.08-.78.188-1.561.269-2.288.134-1.05.296-2.206.511-3.525l.054-.35c.054-.323.108-.619.134-.942 0-.053.027-.107.027-.188.027-.135.054-.242.054-.377.027-.188-.027-.403-.081-.619a57.53 57.53 0 0 0-.08-.403c0-.081-.027-.162 0-.27a.431.431 0 0 1 .107-.188l.027-.053c.135-.216.216-.297.216-.539v-.538a51.46 51.46 0 0 1-.081-1.103c-.054-.511-.135-1.023-.189-1.56-.053-.485-.134-.97-.188-1.454-.027-.323-.081-.646-.108-.969-.296-2.18-.592-4.44.808-6.055a.13.13 0 0 1 .188 0 .165.165 0 0 1 .027.189c-1.319 1.534-1.023 3.713-.754 5.84.054.322.081.645.108.968.054.484.108.969.189 1.426.053.511.134 1.05.188 1.561.054.458.081.807.081 1.13v.538c0 .323-.108.458-.269.673l-.027.054c-.027.054-.054.08-.054.108v.161c.027.135.054.242.081.377.053.242.107.484.107.726 0 .135-.027.27-.054.404 0 .054-.027.108-.027.161-.053.323-.107.62-.134.942l-.054.35a101.462 101.462 0 0 0-.511 3.525c-.081.727-.189 1.507-.269 2.288-.027.08-.081.134-.162.134ZM137.233 89.304c-.081-.027-.135-.08-.135-.161.969-5.759 1.131-9.5 1.104-15.715v-.216c0-1.426.026-4.359-2.987-4.574-.081 0-.135-.081-.135-.135 0-.08.054-.134.135-.134 3.256.215 3.229 3.471 3.229 4.843v.216c.027 6.216-.135 9.983-1.104 15.769.027.08-.026.107-.107.107ZM129.025 68.665h-.027c-.053 0-.08-.054-.107-.108-.162-.807-.054-2.018.35-2.583.053-.054.134-.08.188-.027.054.054.081.135.027.189-.323.43-.431 1.372-.35 2.072 1.265-1.48 3.175-3.23 5.57-3.714.081-.027.135.027.162.108.027.08-.027.134-.108.161-1.883.377-3.875 1.75-5.597 3.875-.027 0-.081.027-.108.027ZM127.25 77.68c-.054 0-.135-.054-.135-.135-.269-2.637-.027-5.732.619-7.884.027-.081.108-.108.161-.081.081.027.108.108.081.161-.619 2.1-.861 5.22-.619 7.777.054.081-.027.135-.107.162.027 0 .027 0 0 0ZM135.295 92.022c-.995 0-2.018-.161-2.556-.323-.081-.026-.108-.107-.081-.161.027-.054.108-.108.162-.08.592.188 1.749.35 2.852.322.081 0 .134.054.134.135 0 .08-.053.134-.134.134-.108-.027-.242-.027-.377-.027Z" fill="#AC1411"/><path d="M128.757 86.264c-.027 0-.054 0-.081-.027a.13.13 0 0 1 0-.188 24.833 24.833 0 0 0 4.709-6.808c.027-.054.108-.108.189-.054.08.054.107.108.053.188a25.26 25.26 0 0 1-4.763 6.862c-.026.027-.08.027-.107.027ZM130.774 85.86a.202.202 0 0 1-.107-.054c-.054-.054-.054-.134.027-.188a14.208 14.208 0 0 0 1.56-1.56.13.13 0 0 1 .189 0 .165.165 0 0 1 .027.188 14.812 14.812 0 0 1-1.588 1.587c-.054.027-.081.027-.108.027Z" fill="#AC1411"/><path d="M131.744 96.005c-.054.189-.081.35-.108.538-.027.43.108.861.269 1.265.027.08.081.161.162.161.054 0 .081-.026.107-.053.296-.242.458-.592.512-.969.054-.377.027-.754-.027-1.13-.027-.162-.215-1.373-.404-1.292-.107.054-.215.565-.269.7-.081.269-.161.511-.242.78Z" fill="#FFAD91"/><path d="M127.653 107.469h-.619c-.081 0-.135-.054-.135-.135 0-.08.054-.134.135-.134a12.225 12.225 0 0 0 3.283-.269c.081 0 .134.027.161.107.027.081-.027.135-.107.162-.888.161-1.803.269-2.718.269ZM128.218 108.841c-.053 0-.107-.027-.134-.107-.027-.081.027-.135.081-.162a7.657 7.657 0 0 0 1.372-.538c.054-.027.161 0 .188.054.027.054 0 .134-.054.188a7.103 7.103 0 0 1-1.426.565h-.027Z" fill="#000"/><path d="M117.185 83.304a.146.146 0 0 1-.134-.081l-.296-.861c-.162-.485-.35-.969-.646-1.373-.054-.053-.027-.134.027-.188.053-.054.134-.027.188.027.323.43.511.942.7 1.453l.296.861c.027.08 0 .135-.081.162h-.054ZM126.28 76.9c-.027 0-.054 0-.054-.028a6.787 6.787 0 0 1-1.83-1.56c-.054-.054-.027-.135.027-.189.054-.053.135-.027.188.027.485.592 1.077 1.13 1.749 1.48.054.027.081.108.054.189a.147.147 0 0 1-.134.08ZM124.908 77.814c-.054 0-.108-.027-.108-.08a8.723 8.723 0 0 1-.484-1.158c-.027-.08 0-.134.08-.161.081-.027.162 0 .162.08.134.377.296.754.484 1.13.027.055 0 .135-.054.19h-.08Z" fill="#AC1411"/><path d="M110.996 82.254c-.35.189-.619.458-.915.727-.027.027-.054.054-.081.108 0 .053.054.134.108.16a.86.86 0 0 0 .726.082c.404-.162.565-.323.646-.377.054-.054.108-.054.188-.054.081 0 .162.027.243.027.592.161 1.237.43 1.856.35a.344.344 0 0 0 .269-.108c.108-.08.135-.242.108-.376a.943.943 0 0 0-.511-.646c-.673-.377-1.965-.216-2.637.107Z" fill="#FFAD91"/><path d="M132.497 98.992s-.027 0 0 0c-.108-.027-.135-.08-.135-.161.054-.296.108-.592.162-.915 0-.08.08-.135.161-.108.081 0 .135.081.108.162-.054.296-.108.619-.162.915-.027.053-.081.107-.134.107ZM133.466 98.777c-.027 0-.027 0 0 0-.081 0-.135-.08-.135-.162l.081-.645c0-.081.081-.135.161-.108.081 0 .135.08.108.161l-.081.646c-.027.054-.081.108-.134.108ZM134.22 98.508c-.054 0-.108-.054-.135-.108 0-.054 0-.08.027-.135l.081-.484c.027-.08.08-.134.161-.108.081 0 .108.081.108.162l-.108.538c0 .08-.081.135-.134.135Z" fill="#EE6C4D"/><path d="M131.986 94.579c-.403-.027-.995-.216-1.399-.377-.054-.027-.108-.108-.081-.189.027-.053.108-.107.189-.08.376.161.941.35 1.291.35.081 0 .135.053.135.134 0 .108-.054.162-.135.162Z" fill="#000"/></svg>