<svg width="148" height="130" fill="none" xmlns="http://www.w3.org/2000/svg"><path d="M122.281 127.078H1.185L.985 5.151C.985 2.76 2.978.834 5.368.967L122.78 6.844c1.793.1 3.22 1.56 3.22 3.354v113.161a3.713 3.713 0 0 1-3.719 3.719Z" fill="#F2F1F0"/><path d="m74.434 86.203-67.538.431c-.93 0-1.66-.664-1.66-1.527V72.821c0-.83.73-1.527 1.66-1.527h67.538c.93 0 1.66.664 1.66 1.527v11.854c-.033.83-.764 1.528-1.66 1.528Z" fill="#FF6163"/><path d="M125.899 17.901.917 14.25.884 3.955c0-2.258 1.893-4.05 4.118-3.951l117.909 5.91c1.693.067 2.988 1.461 2.988 3.155V17.9Z" fill="#0AF"/><path d="M11.943 10.928a3.055 3.055 0 1 0 0-6.11 3.055 3.055 0 0 0 0 6.11ZM22.435 11.327a3.055 3.055 0 1 0 0-6.11 3.055 3.055 0 0 0 0 6.11ZM32.263 11.625a3.022 3.022 0 1 0 0-6.043 3.022 3.022 0 0 0 0 6.043Z" fill="#fff"/><path d="M1.019 95.135c-.1 0-.166-.066-.166-.166L.62 32.877c0-.1.067-.166.166-.166.1 0 .166.066.166.166l.233 62.092c0 .1-.067.166-.166.166Z" fill="#EAE5DB"/><path d="m70.582 29.29-18.296-.531c-.1 0-.166-.066-.166-.166s.067-.166.166-.166l18.296.531c.1 0 .166.067.166.166 0 .1-.067.166-.166.166Z" fill="#C7BBA3"/><path d="m49.497 28.693-19.126-.565c-.1 0-.166-.066-.166-.166s.067-.166.166-.166l19.126.565c.1 0 .166.066.166.166s-.066.166-.166.166Z" fill="#DBD3C1"/><path d="m24.03 32.777-15.142-.465c-.1 0-.166-.067-.166-.166 0-.1.067-.166.166-.166l15.141.465c.1 0 .166.066.166.166s-.1.166-.166.166ZM74.202 49.313l-10.825-.166c-.1 0-.166-.067-.166-.166 0-.1.066-.166.166-.166l10.825.166c.1 0 .166.066.166.166s-.067.166-.166.166Z" fill="#C7BBA3"/><path d="m59.923 49.08-34.566-.498c-.1 0-.166-.066-.166-.166s.067-.166.166-.166l34.566.498c.1 0 .166.067.166.166 0 .1-.1.166-.166.166Z" fill="#DBD3C1"/><path d="M49.032 53.596 36.98 53.53c-.1 0-.166-.067-.166-.166 0-.1.066-.166.166-.166l12.053.066c.1 0 .166.066.166.166s-.066.166-.166.166ZM33.592 53.53l-24.704-.133c-.1 0-.166-.066-.166-.166s.067-.166.166-.166l24.704.133c.1 0 .166.066.166.166s-.066.166-.166.166Z" fill="#C7BBA3"/><path d="M69.984 76.407H58.362c-.1 0-.166-.066-.166-.165 0-.1.067-.167.166-.167h11.622c.1 0 .166.067.166.166 0 .1-.067.166-.166.166ZM52.984 76.407H28.379c-.1 0-.166-.066-.166-.165 0-.1.067-.167.166-.167h24.605c.1 0 .166.067.166.166 0 .1-.066.166-.166.166Z" fill="#AC1411"/><path d="M94.39 35.765h-4.815c-.565 0-1.03-.465-1.03-.996l-.132-4.782c0-.265.1-.531.298-.73.2-.2.465-.3.73-.3l4.816.167c.564 0 .996.465.996.996l.132 4.649c0 .265-.1.531-.265.73-.166.2-.465.266-.73.266Zm-4.981-6.475a.655.655 0 0 0-.465.2.675.675 0 0 0-.2.497l.133 4.782c0 .365.333.697.698.697h4.814c.2 0 .366-.066.465-.2a.655.655 0 0 0 .2-.464l-.133-4.649c0-.365-.3-.664-.698-.697l-4.814-.166Z" fill="#DBD3C1"/><path d="M38.141 81.421H24.195c-.1 0-.166-.066-.166-.166s.067-.166.166-.166h13.946c.1 0 .166.067.166.166 0 .1-.066.166-.166.166ZM21.24 81.421H8.888c-.1 0-.166-.066-.166-.166s.067-.166.166-.166H21.24c.1 0 .166.067.166.166 0 .1-.066.166-.166.166Z" fill="#AC1411"/><path d="M94.39 58.012h-4.815c-.565 0-1.03-.465-1.03-.996l-.132-4.781c0-.266.1-.532.298-.73.2-.2.465-.3.73-.3l4.816.166c.564 0 .996.465.996.997l.132 4.648c0 .266-.1.532-.265.73-.166.2-.465.266-.73.266Zm-4.981-6.474a.655.655 0 0 0-.465.199.676.676 0 0 0-.2.498l.133 4.781c0 .366.333.698.698.698h4.814c.2 0 .366-.067.465-.2a.656.656 0 0 0 .2-.465l-.133-4.648c0-.365-.3-.664-.698-.698l-4.814-.166Z" fill="#DBD3C1"/><path d="M91.633 35.101a.832.832 0 0 1-.597-.265l-3.885-4.051c-.299-.332-.299-.864.033-1.163.332-.298.863-.298 1.162.034l3.287 3.453 5.579-5.579c.332-.332.863-.332 1.162 0 .299.333.332.864 0 1.163l-6.176 6.176a.801.801 0 0 1-.565.232Z" fill="#97CF00"/><path d="M93.858 82.318h-4.815c-.565 0-1.03-.465-1.03-.996l-.132-4.782c0-.265.1-.53.299-.73.199-.2.465-.299.73-.299l4.815.166c.564 0 .996.465.996.996l.133 4.616c0 .265-.1.53-.266.73-.232.2-.465.299-.73.299Zm-4.981-6.475a.655.655 0 0 0-.465.2.676.676 0 0 0-.2.497l.134 4.782c0 .365.332.697.697.697h4.815c.199 0 .365-.066.465-.2a.655.655 0 0 0 .199-.464l-.133-4.682c0-.365-.299-.664-.697-.697l-4.815-.133Z" fill="#EAE5DB"/><path d="M91.633 57.348a.832.832 0 0 1-.597-.265l-3.885-4.051c-.299-.332-.299-.864.033-1.162.332-.3.863-.3 1.162.033l3.287 3.453 5.579-5.578c.332-.332.863-.332 1.162 0 .299.332.332.863 0 1.162l-6.176 6.176a.801.801 0 0 1-.565.232Z" fill="#97CF00"/><path d="M93.593 100.249h-4.815c-.565 0-1.03-.465-1.03-.997l-.132-4.781c0-.266.1-.531.299-.73.199-.2.464-.3.73-.3l4.815.167c.564 0 .996.465.996.996l.133 4.648c0 .266-.1.532-.266.73-.166.2-.465.267-.73.267Zm-4.981-6.475a.656.656 0 0 0-.465.199.676.676 0 0 0-.2.498l.134 4.781c0 .366.332.698.697.698h4.814c.2 0 .366-.067.465-.2a.656.656 0 0 0 .2-.464l-.133-4.649c0-.365-.299-.664-.697-.697l-4.815-.166c.033 0 0 0 0 0Z" fill="#EAE5DB"/><path d="M91.069 99.02a.252.252 0 0 1-.133-.067l-3.885-4.05a.16.16 0 0 1 0-.233.16.16 0 0 1 .232 0l3.752 3.951 6.077-6.076a.16.16 0 0 1 .232 0 .16.16 0 0 1 0 .232l-6.176 6.176c0 .034-.066.067-.1.067Z" fill="#97CF00"/><path d="m109.398 32.611-7.736-.133c-.1 0-.166-.066-.166-.166s.066-.166.166-.166l7.736.133c.1 0 .166.066.166.166 0 .066-.066.166-.166.166ZM109.232 54.46l-7.438-.1c-.1 0-.166-.066-.166-.166s.066-.166.166-.166l7.438.1c.099 0 .166.066.166.166s-.067.166-.166.166ZM108.302 78.731h-5.977c-.1 0-.166-.066-.166-.166s.066-.166.166-.166h5.977c.099 0 .166.067.166.166 0 .1-.067.166-.166.166Z" fill="#DBD3C1"/><path d="M111.457 96.795h-8.434c-.1 0-.166-.067-.166-.166 0-.1.066-.166.166-.166h8.467c.1 0 .166.066.166.166s-.099.166-.199.166Z" fill="#EAE5DB"/><path d="M117.268 118.976h-.033l-34.6-.598c-1.095-.033-1.992-.93-1.992-2.026l-1.66-92.84c0-.564.2-1.128.598-1.527a2.06 2.06 0 0 1 1.46-.597l36.924.962c1.096.034 1.992.963 1.992 2.092l-.664 92.508c0 .565-.232 1.096-.631 1.494a2.078 2.078 0 0 1-1.394.532ZM81.042 21.72c-.432 0-.864.166-1.196.498a1.814 1.814 0 0 0-.531 1.262l1.66 92.839c.033.93.764 1.694 1.66 1.694l34.6.597c.464.034.896-.166 1.195-.498.332-.332.531-.763.531-1.228l.664-92.508c0-.93-.73-1.727-1.66-1.76l-36.923-.963c.033.067 0 .067 0 .067ZM8.888 97.559c-.1 0-.166-.067-.166-.166 0-.1.067-.166.166-.166l39.613-.532c.1 0 .166.067.166.166 0 .1-.066.166-.166.166l-39.613.532Z" fill="#DBD3C1"/><path d="M25.357 29.589h-.066l-16.768-.598a1.646 1.646 0 0 1-1.594-1.726 1.646 1.646 0 0 1 1.727-1.594l16.768.598c.93.033 1.627.796 1.594 1.726a1.652 1.652 0 0 1-1.66 1.594ZM20.774 49.977c-.033 0-.033 0 0 0l-12.219-.133c-.93 0-1.66-.764-1.66-1.66 0-.897.764-1.66 1.66-1.66l12.186.132c.93 0 1.66.764 1.627 1.66a1.59 1.59 0 0 1-1.593 1.66Z" fill="#97CF00"/><path d="m24.229 77.902-15.34-.067c-.93 0-1.661-.763-1.661-1.66 0-.93.73-1.66 1.66-1.66l15.34.066c.93 0 1.66.764 1.66 1.66 0 .93-.763 1.66-1.66 1.66Z" fill="#AC1411"/><path d="M93.758 82.086a.778.778 0 0 1-.564-.233l-4.914-4.748a.833.833 0 0 1-.034-1.162.833.833 0 0 1 1.163-.033l4.914 4.748c.332.332.332.83.033 1.162a.764.764 0 0 1-.597.266Z" fill="#FF6163"/><path d="M89.077 82.251a.777.777 0 0 1-.564-.232.833.833 0 0 1-.067-1.162l4.483-4.915a.833.833 0 0 1 1.162-.066c.332.299.365.83.066 1.162l-4.482 4.915a.71.71 0 0 1-.598.298Z" fill="#FF6163"/><path d="M129.558 121.237c.024-.261.038-.526.038-.798v-14.424c0-4.591-5.282-8.484-9.19-8.484h-6.275c-3.908 0-8.734 4.605-8.734 9.197v14.179c.009.112.03.218.041.328H92.065c.207-.652.33-1.333.33-2.041V104.77c0-4.592-4.816-8.484-8.378-8.484h-5.72c-1.683 0-3.548 1.036-5.054 2.605-1.166-.657-2.396-1.034-3.504-1.034h-5.72c-.557 0-1.137.123-1.715.332-1.703-2.443-4.566-4.12-6.901-4.12h-5.72c-3.562 0-7.96 4.606-7.96 9.197l.433 14.18c.068.827.24 1.604.497 2.328h-2.129v-10.763a6.453 6.453 0 0 0-6.452-6.453h-5.72c-3.562 0-7.96 3.574-7.96 7.136l1.328 10.682c.37 3.569 3.07 6.358 6.632 6.358h5.72c2.4 0 4.488-1.312 5.6-3.256h5.514c1.312 1.11 2.906 1.746 4.495 1.746h5.72c.687 0 1.42-.139 2.157-.391 1.398 2.573 3.933 4.178 6.461 4.178h5.72c1.764 0 3.837-.899 5.48-2.364.973.51 2.027.793 3.079.793h5.72c1.222 0 2.59-.438 3.863-1.191h19.544c1.254 1.56 2.964 2.477 4.832 2.42l9.918-.231a7.887 7.887 0 0 0 4.987-2.189h14.64a2.839 2.839 0 0 0 2.838-2.839v-2.182h-15.082v.009Z" fill="#000"/><path d="M32.804 121.829c-.586-.032-1.625-.654-1.733-2.228-.328-4.794-.445-7.113-1.687-10.035-.6-1.411-1.864-3.485-3.835-3.274-1.788.191-2.95 2.755-3.301 4.023-.82 2.964-.881 6.769-.447 10.925-3.115-2.911-3.76-3.702-4.268-7.936-.256-2.137-.715-8.992.1-10.983.563-1.369 2.105-2.405 3.017-3.57 1.92-2.445 3.73-4.45 5.65-6.895 2.043-2.602 4.281-5.93 6.99-7.83 3.281-2.301 9.72-4.322 13.91-5.623 3.074-.953 4.6-1.263 14.619-1.389 8.06-.101 21.47.411 29.466 1.198 3.98.391 4.385.178 7.995 1.9 6.715 3.202 14.523 8.349 21.135 11.837 2.937 1.548 5.477 2.382 8.549 3.643 3.531 1.447 10.602 5.101 12.096 7.268 1.025 1.486 2.877 4.562 4.243 6.336 1.086 1.409 3.12 3.721 2.504 5.609-.838 2.569-.378 4.259.117 6.001.13.461-.063.975-.319 1.38-.441.699-1.353.897-2.171 1.014-4.185.591-8.963.627-13.188.649-19.104.101-40.605-.467-59.55-.526-2.519-.007-3.247-1.301-4.321-2.587-.06-7.54-.247-11.167-2.681-17.391-.54-1.38-2.351-3.061-4.06-2.834-1.649.221-3.119 2.549-3.55 3.783-1.153 3.299-1.385 4.947-1.702 9.3-.15 2.072.162 8.576.162 8.576-3.25.065-20.085-.15-23.74-.341Z" fill="#FF6163"/><path d="M32.804 121.828c-.586-.031-1.625-.654-1.733-2.227-.328-4.794-.445-7.113-1.687-10.035-.6-1.411-1.864-3.486-3.835-3.275-1.788.192-2.95 2.756-3.301 4.023-.82 2.965-.881 6.77-.447 10.925-3.115-2.91-3.76-3.701-4.268-7.935-.256-2.138-.715-8.993.1-10.984.563-1.369 2.105-2.405 3.017-3.569 1.92-2.445 3.73-4.45 5.65-6.895 2.043-2.603 4.281-5.931 6.99-7.83 3.281-2.301 9.72-4.322 13.91-5.623 3.074-.953 3.555-1.383 7.101 3.733 4.835 6.97 6.17 8.509 7.579 9.484 3.456 2.387 12.246 6.288 15.352 8.81 3.634 2.953.87 4.169 6.302 9.305 2.486 2.35-.335 6.126-1.773 9.92-.454 1.2 2.384 3.672 1.034 3.692-2.49.039 8.846.032-10.098-.027-2.52-.006-3.248-1.301-4.322-2.586-.06-7.541-.247-11.168-2.681-17.391-.54-1.38-2.351-3.061-4.06-2.834-1.649.22-3.119 2.548-3.55 3.782-1.153 3.299-1.385 4.947-1.702 9.3-.15 2.072.162 8.577.162 8.577-3.25.067-20.085-.149-23.74-.34Z" fill="#EA3F50"/><path d="m134.952 122.666-40.315-.225c-.636-.011-.901-.818-.395-1.204l5.497-4.515a2.26 2.26 0 0 1 1.438-.515h29.107c.508 0 .989.223 1.319.609l3.846 4.423c.566.663.38 1.443-.497 1.427ZM86.692 119.934h-8.608a.848.848 0 0 1-.66-1.38l.84-1.05a7.647 7.647 0 0 1 5.95-2.861l7.616-.013c.58 0 .867.703.45 1.108l-3.421 3.315a3.104 3.104 0 0 1-2.167.881ZM144.612 120.174l-4.828.092a1.423 1.423 0 0 1-1.229-.661l-2.016-3.171a.945.945 0 0 1 .798-1.452h3.396c1.712 0 3.299.902 4.178 2.371l.656 1.1a1.137 1.137 0 0 1-.955 1.721ZM131.825 109.822l-30.835.056-1.645-2.787 32.714.137-.234 2.594Z" fill="#000"/><path d="M121.852 111.899h-9.172l2.434-3.18a2.195 2.195 0 0 1 3.285-.23l3.453 3.41Z" fill="#FF6163"/><path d="M102.784 109.885a.792.792 0 0 1-.814.951l-16.624-.847a12.42 12.42 0 0 1-10.871-8.181l-.403-1.115 27.698 6.01a.577.577 0 0 1 .443.447l.571 2.735ZM145.303 109.195l-14.734 1.461a.562.562 0 0 1-.623-.557l.178-2.807c0-.236.146-.448.368-.529l10.568-3.901 4.243 6.333Z" fill="#fff"/><path d="M57.917 91.517 27.91 96.43a.491.491 0 0 1-.487-.758l5.886-8.83a5.692 5.692 0 0 1 2.942-2.344l12.001-4.194a3.283 3.283 0 0 1 3.783 1.23l6.275 9.057c.249.36.04.856-.392.926ZM120.17 93.187c-24.888 1.418-52.294-1.484-56.247-1.924a1.2 1.2 0 0 1-.796-.436L53.48 79.019c-.162-.198-.025-.495.23-.51 24.694-1.371 40.215.667 42.89 1.058.272.04.53.128.77.263l22.923 12.835c.236.137.155.506-.122.522Z" fill="#000"/><path d="M62.113 124.485c2.042 0 3.697-4.252 3.697-9.498 0-5.245-1.655-9.498-3.697-9.498s-3.697 4.253-3.697 9.498c0 5.246 1.655 9.498 3.697 9.498ZM26.055 123.858c1.63 0 2.951-3.394 2.951-7.581s-1.32-7.581-2.95-7.581c-1.63 0-2.951 3.394-2.951 7.581s1.32 7.581 2.95 7.581ZM93.605 118.345h-9.368a.7.7 0 0 1-.564-1.115l.438-.595a.7.7 0 0 1 .564-.286h9.368a.7.7 0 0 1 .564 1.115l-.438.595a.707.707 0 0 1-.564.286ZM140.534 118.212h-5.34a.61.61 0 0 1-.503-.265l-.438-.645a.609.609 0 0 1 .503-.953h5.34c.202 0 .389.099.504.265l.438.645a.61.61 0 0 1-.504.953Z" fill="#fff"/><path d="M64.134 117.282c.474 0 .858-1.037.858-2.315 0-1.279-.384-2.315-.858-2.315s-.859 1.036-.859 2.315c0 1.278.385 2.315.859 2.315ZM27.655 118.086c.365 0 .66-.798.66-1.782 0-.985-.295-1.783-.66-1.783-.365 0-.66.798-.66 1.783 0 .984.295 1.782.66 1.782ZM61.761 112.496c.076.207.054.551-.054.881-.121.365-.485.551-.802.614-1.212.238-2.126.225-3.225.205.126.002-.043-4.801.737-5.039 0 0 1.55 1.074 1.904 1.447.532.562 1.168 1.162 1.44 1.892ZM60.815 116.742c.404.052.843.153 1.085.479.2.27.218.643.124.964-.094.322-.292.605-.494.872a14.61 14.61 0 0 1-2.819 2.832 33.06 33.06 0 0 1-1.027-3.371c-.085-.344-.425-1.124-.24-1.454.193-.344 1.078-.326 1.418-.355a9.108 9.108 0 0 1 1.953.033ZM63.009 119.832c.117-.353.38-.859.748-.809.308.04.378.6.378.91 0 1.11-.182 2.848-.167 3.926.003.169.818-.658.773-.494a1.548 1.548 0 0 1-.157.346 4.277 4.277 0 0 1-1.317 1.391c-.297.198-.63.36-.982.398-.427.045-.996-.099-1.01-.573-.015-.553.358-1.265.534-1.791.454-1.367.683-1.733 1.2-3.304ZM61.96 109.472c.394.629 1.11 1.775 1.767 1.775.391 0 .427-.62.337-1.342-.267-2.137-.474-3.586-1.168-5.486.004.021-1.814.765-1.958.843-.416.225-.962.416-.879.976.081.53.403.865.7 1.299.455.658.824 1.328 1.202 1.935ZM65.228 111.351c-.004.312-.006.627.061.932.148.679.627 1.23 1.088 1.749-.157-.178-.031-1.31-.052-1.585-.043-.555-.11-1.11-.204-1.66-.178-1.048-.41-2.176-.843-3.147-.05 1.234-.034 2.475-.05 3.711ZM65.24 118.358a3.392 3.392 0 0 1 .025-.676c.12-.713.652-1.275 1.16-1.787a17.45 17.45 0 0 1-.668 4.756c-.087.31-.177.685-.375.944-.177-.302-.076-.962-.088-1.311l-.053-1.926ZM24.127 118.893c.388-.065.79-.101 1.177-.018.254.056.517.18.632.416.16.335-.045.724-.252 1.031a20.013 20.013 0 0 1-1.944 2.457c.047-.052-.975-2.427-1.023-2.744-.134-.922.648-1.014 1.41-1.142ZM24.262 116.866c.317-.065.64-.135.923-.295.284-.159.522-.431.56-.753.034-.281-.092-.564-.279-.777-.186-.214-.431-.367-.676-.508a11.008 11.008 0 0 0-1.982-.892c-.016-.005-.257 2.472-.261 2.699-.007.377-.16.903.337.813.46-.083.92-.193 1.378-.287ZM25.287 112.373c.26.328.539.67.93.818.252.097.591.074.721-.159.093-.164.061-.582.054-.881-.038-1.702-.51-2.839-1.114-4.208-.564.506-1.756 1.562-2.014 2.295-.14.398.294.719.546 1.034.294.366.587.735.877 1.101ZM26.23 122.112c.119-.614.276-1.243.66-1.737.19-.243.542-.454.783-.266a.632.632 0 0 1 .173.268c.137.323.254.656.346.993a.796.796 0 0 1 .04.299.785.785 0 0 1-.119.301c-.242.441-.488.881-.757 1.306-.234.369-.571 1.034-.958 1.259-.528.307-.714-.012-.636-.311.18-.649.358-1.546.468-2.112ZM28.243 111.942c.018.543.036 1.092.189 1.613.047.162.11.328.233.443.09.085.205.139.317.191l.72.33c-.104-.047-.208-1.011-.246-1.168-.103-.425-.22-.845-.353-1.261-.24-.753-.487-1.643-.921-2.308-.054.703.036 1.452.06 2.16ZM28.837 117.279c.114-.298.353-.564.663-.642-.173.045.034 1.872-.355 2.153-.623.447-.423-1.216-.308-1.511Z" fill="#000"/><path d="M33.566 119.107a.337.337 0 0 1-.335-.344c.063-3.205-.292-5.711-1.12-7.887-1.024-2.694-2.8-4.78-4.997-5.87l-.057-.027c-.274-.135-.586-.288-.795-.584-.19-.265-.243-.569-.281-.856-.324-2.394-.117-4.37.667-6.401a.338.338 0 0 1 .63.242c-.742 1.92-.935 3.792-.63 6.069.027.204.063.415.162.557.11.157.322.261.544.371l.058.029c2.351 1.166 4.244 3.38 5.33 6.235.829 2.177 1.202 4.661 1.168 7.791l19.137-.224c.074 0 .227-.003.27-.041.038-.033.054-.148.047-.346l-.418-11.158c-.196-4.943-.396-10.051 2.614-14.202a.338.338 0 0 1 .546.395c-2.875 3.963-2.686 8.732-2.486 13.78l.059 1.53.36 9.628c.006.202.022.623-.282.883-.23.196-.526.2-.701.203l-19.483.229-.007-.002Z" fill="#AC1411"/><path d="M41.148 118.83a.336.336 0 0 1-.33-.272c-1.484-7.416-3.167-15.822-1.151-23.744a.336.336 0 1 1 .652.166c-1.98 7.774-.313 16.101 1.157 23.446a.335.335 0 0 1-.265.395.179.179 0 0 1-.063.009ZM28.973 99.05a.337.337 0 0 1-.054-.67 24.768 24.768 0 0 1 2.737-.29.34.34 0 0 1 .353.32.337.337 0 0 1-.32.353c-.89.044-1.786.139-2.662.283a.427.427 0 0 1-.054.004ZM42.309 97.592a.337.337 0 0 1-.04-.672l3.146-.371a.337.337 0 1 1 .08.67l-3.145.37a.25.25 0 0 1-.041.003Z" fill="#AC1411"/><path d="M101.775 104.561a.322.322 0 0 1-.166-.045 106.856 106.856 0 0 0-18.018-8.12.338.338 0 0 1 .22-.638 107.736 107.736 0 0 1 18.13 8.171.336.336 0 0 1 .126.459.335.335 0 0 1-.292.173ZM129.337 104.381a.337.337 0 0 1-.322-.236 25.512 25.512 0 0 0-4.506-8.358.336.336 0 0 1 .05-.474.336.336 0 0 1 .474.05 26.18 26.18 0 0 1 4.625 8.58.337.337 0 0 1-.321.438ZM99.348 116.462a.338.338 0 0 1-.063-.007l-6.147-1.164a.336.336 0 1 1 .126-.661l6.147 1.164a.335.335 0 0 1 .267.393.339.339 0 0 1-.33.275ZM131.823 116.544a.338.338 0 0 1-.06-.669l3.946-.733a.338.338 0 0 1 .124.663l-3.947.733a.344.344 0 0 1-.063.006Z" fill="#EA3F50"/><path d="m29.411 96.2 9.725-1.591L50.18 80.266a3.268 3.268 0 0 0-1.944.06l-7.49 2.619L29.41 96.2ZM44.745 91.733a.337.337 0 0 1-.27-.54l6.465-8.653a.337.337 0 0 1 .54.405l-6.465 8.653a.335.335 0 0 1-.27.135Z" fill="#AC1411"/><path d="m41.392 94.223-2.76.452L41.147 82.8l1.162-.407-.917 11.829Z" fill="#000"/><path d="M67.96 91.672c3.37.324 8.4.762 14.43 1.135L94.03 79.234c-2.636-.305-7.005-.719-12.911-.973l-13.16 13.41ZM89.357 89.91a.326.326 0 0 1-.198-.065.335.335 0 0 1-.074-.47l5.866-8.066a.335.335 0 0 1 .47-.074c.15.11.184.319.074.47L89.63 89.77a.331.331 0 0 1-.272.139ZM100.134 92.097a.337.337 0 0 1-.294-.499 42.982 42.982 0 0 0 2.167-4.567.336.336 0 1 1 .624.252 43.16 43.16 0 0 1-2.2 4.638.339.339 0 0 1-.297.176Z" fill="#AC1411"/></svg>